<svg width="317" height="268" viewBox="0 0 317 268" fill="none" xmlns="http://www.w3.org/2000/svg">
<path d="M225.133 9.33334C207.533 31.3333 183.4 44.6667 117 68.6667C76.4667 83.3333 51.9333 97.4667 29.8 119.067C13 135.467 2.59999 152.933 1.39999 167.2L0.599991 174.933L7.79999 183.067C11.8 187.467 15.2667 191.2 15.6667 191.2C16.0667 191.333 16.3333 187.867 16.3333 183.6C16.4667 173.733 21.8 162.133 32.6 148.667C45.2667 132.667 63.2667 118.933 88.3333 106.133C99.9333 100.133 107.667 96.9333 159.4 77.2C213.267 56.5333 233.533 38.6667 235.4 10.4C236.2 -2.13332 234.467 -2.26666 225.133 9.33334Z" fill="#1A1F2B"/>
<path d="M247 18.4C246.733 19.2 245.533 23.2 244.333 26.9333C240.467 39.4667 226.6 55.4667 211.4 65.2C196.2 74.8 170.867 86.1333 141.667 96.2667C95.8 112.133 68.8667 127.2 47.6667 148.533C33.5333 162.8 26.3333 175.6 25.4 187.867C24.6 197.867 26.0667 201.333 35.4 210.4L41.9333 216.8L42.7333 206.933C44.0667 188.8 54.6 172.533 76.4667 155.067C92.2 142.4 116.867 129.867 146.333 119.333C220.333 92.8 246.6 76.9334 259.533 51.0667C265.533 39.0667 265.133 34.2667 257.533 25.3334C250.867 17.7333 247.933 15.7333 247 18.4Z" fill="#1A1F2B"/>
<path d="M274.733 44.9333C274.067 45.8667 272.467 49.4667 271.133 53.0667C264.6 70.5333 244.067 89.7333 217.133 103.333C207.933 107.867 173.667 121.6 150.333 130C118.467 141.467 101.133 150.267 82.4667 164.667C63.1333 179.6 52.2 196.133 50.7333 212.4C49.9333 222.267 52.2 227.333 61.4 236.4L68.6 243.6L69.2667 232.4C69.8 223.467 70.6 219.867 73.9333 213.333C87.1333 187.467 113.4 169.733 169 148.8C237.933 123.067 259.133 111.867 275 93.4667C283.533 83.4667 290.333 69.8667 290.333 62.8C290.333 57.8667 289.533 56.5333 283.267 50.2667C277.8 44.8 275.8 43.6 274.733 44.9333Z" fill="#1A1F2B"/>
<path d="M299 74.8C297.933 77.4667 297 79.8667 297 80.2667C297 80.5333 294.2 85.0667 290.867 90.2667C273.4 117.467 249.667 131.333 172.867 159.733C135 173.733 111.667 186.4 97.2667 200.8C85 212.933 79.4 222.533 77 235.467C75 246.133 77 251.867 85.5333 260.533L93 268V261.067C93 247.733 99 236 112.6 222.533C127.533 207.867 147.667 196.667 184.333 182.8C259.533 154.133 284.067 141.067 300.6 120.933C307.533 112.4 315.4 96.9333 316.6 89.4667C317.267 84.8 316.867 84 310.2 77.2C306.333 73.2 302.6 70 302.067 70C301.533 70 300.067 72.1333 299 74.8Z" fill="#1A1F2B"/>
</svg>
